<svg xmlns="http://www.w3.org/2000/svg" viewBox="0 0 512 512">
  <rect width="512" height="512" rx="120" fill="#ffffff" />
  <path
    fill="#7e14ff"
    d="M278.72 463.872c-13.056 16.608-39.744 7.36-39.744-13.728V247.552c0-24.96-20.224-45.184-45.184-45.184H89.856c-18.4 0-29.12-20.8-18.4-35.744L139.2 71.808C143.488 65.856 150.336 62.4 157.632 62.4h263.488c18.4 0 29.12 20.8 18.4 35.744l-67.744 94.816c-9.728 13.568 0 32.448 16.672 32.448h102.976c18.848 0 29.44 21.76 17.792 36.128L278.72 463.872Z"
  />
  <circle cx="382" cy="132" r="44" fill="#47bfff" />
</svg>