<svg xmlns="http://www.w3.org/2000/svg" viewBox="0 0 512 512">
  <rect width="512" height="512" rx="128" fill="#f3edff" />
  <circle cx="256" cy="256" r="176" fill="#ffffff" />
  <path
    fill="#7e14ff"
    d="M286.528 392.8c-9.664 12.288-29.44 5.44-29.44-10.112V232.8c0-18.464-14.976-33.44-33.44-33.44h-76.864c-13.632 0-21.568-15.424-13.632-26.56l50.24-70.4c3.168-4.416 8.24-6.976 13.632-6.976h194.944c13.632 0 21.568 15.424 13.632 26.56l-50.24 70.4c-7.232 10.112 0 24.32 12.352 24.32h76.864c13.952 0 21.792 16.096 13.184 26.72L286.528 392.8Z"
  />
  <circle cx="348" cy="170" r="32" fill="#47bfff" />
</svg>